<svg width="200" height="100" viewBox="0 0 200 100" fill="none" xmlns="http://www.w3.org/2000/svg">
<path d="M85.6111 67.5926L85.6111 38.8889L96.7222 33.3333L107.833 27.7778M85.6111 67.5926H63.3889M85.6111 67.5926H107.833M107.833 27.7778V16.6667L116.167 13.8889M107.833 27.7778L118.944 27.9183L121.722 19.4444" stroke="white" stroke-width="5.55556"/>
<path d="M85.6111 61.1111H80.0556H91.1667" stroke="white" stroke-width="5.55556"/>
<path d="M78.2037 62.037L70.7963 62.037M70.7963 62.037L100.426 62.037M70.7963 62.037L63.3889 62.037L107.833 62.037" stroke="white" stroke-width="5.55556"/>
<path d="M74.5 56.4815L96.7222 56.4815" stroke="white" stroke-width="5.55556"/>
<rect x="118.944" y="5.55556" width="5.55556" height="5.55556" fill="white"/>
<rect x="130.056" y="11.1111" width="5.55556" height="5.55556" fill="white"/>
<rect x="130.056" width="5.55556" height="5.55556" fill="white"/>
<path d="M61.197 95.9259C60.4859 95.9259 59.8637 95.7852 59.3304 95.5037C58.797 95.2222 58.3822 94.8222 58.0859 94.3037C57.7896 93.7852 57.6415 93.1778 57.6415 92.4815V81.5259H53.5304V79.7037H59.6415V92.4815C59.6415 92.9852 59.7822 93.3852 60.0637 93.6815C60.3452 93.963 60.723 94.1037 61.197 94.1037H65.0859V95.9259H61.197ZM72.855 96.1037C71.8773 96.1037 71.0328 95.9185 70.3217 95.5481C69.6106 95.1778 69.055 94.6444 68.655 93.9481C68.2699 93.237 68.0773 92.4 68.0773 91.437V88.1926C68.0773 87.2148 68.2699 86.3778 68.655 85.6815C69.055 84.9852 69.6106 84.4519 70.3217 84.0815C71.0328 83.7111 71.8773 83.5259 72.855 83.5259C73.8328 83.5259 74.6773 83.7111 75.3884 84.0815C76.0995 84.4519 76.6476 84.9852 77.0328 85.6815C77.4328 86.3778 77.6328 87.2074 77.6328 88.1704V91.437C77.6328 92.4 77.4328 93.237 77.0328 93.9481C76.6476 94.6444 76.0995 95.1778 75.3884 95.5481C74.6773 95.9185 73.8328 96.1037 72.855 96.1037ZM72.855 94.3259C73.7291 94.3259 74.4106 94.0815 74.8995 93.5926C75.3884 93.1037 75.6328 92.3852 75.6328 91.437V88.1926C75.6328 87.2444 75.3884 86.5259 74.8995 86.037C74.4106 85.5481 73.7291 85.3037 72.855 85.3037C71.9958 85.3037 71.3143 85.5481 70.8106 86.037C70.3217 86.5259 70.0773 87.2444 70.0773 88.1926V91.437C70.0773 92.3852 70.3217 93.1037 70.8106 93.5926C71.3143 94.0815 71.9958 94.3259 72.855 94.3259ZM86.2686 96.1481C85.2908 96.1481 84.4315 95.963 83.6908 95.5926C82.9649 95.2222 82.4019 94.6889 82.0019 93.9926C81.6019 93.2815 81.4019 92.4444 81.4019 91.4815V88.1481C81.4019 87.1704 81.6019 86.3333 82.0019 85.637C82.4019 84.9407 82.9649 84.4074 83.6908 84.037C84.4315 83.6667 85.2908 83.4815 86.2686 83.4815C87.676 83.4815 88.8093 83.8593 89.6686 84.6148C90.5278 85.3704 90.9797 86.4 91.0241 87.7037H89.0241C88.9797 86.9185 88.713 86.3185 88.2241 85.9037C87.7501 85.4741 87.0982 85.2593 86.2686 85.2593C85.3945 85.2593 84.6982 85.5111 84.1797 86.0148C83.6612 86.5037 83.4019 87.2074 83.4019 88.1259V91.4815C83.4019 92.4 83.6612 93.1111 84.1797 93.6148C84.6982 94.1185 85.3945 94.3704 86.2686 94.3704C87.0982 94.3704 87.7501 94.1556 88.2241 93.7259C88.713 93.2963 88.9797 92.6963 89.0241 91.9259H91.0241C90.9797 93.2296 90.5278 94.2593 89.6686 95.0148C88.8093 95.7704 87.676 96.1481 86.2686 96.1481ZM101.171 95.9259C100.46 95.9259 99.8377 95.7852 99.3043 95.5037C98.771 95.2222 98.3562 94.8222 98.0599 94.3037C97.7636 93.7852 97.6155 93.1778 97.6155 92.4815V81.5259H93.5043V79.7037H99.6155V92.4815C99.6155 92.9852 99.7562 93.3852 100.038 93.6815C100.319 93.963 100.697 94.1037 101.171 94.1037H105.06V95.9259H101.171ZM112.829 96.1481C111.866 96.1481 111.022 95.9556 110.296 95.5704C109.585 95.1852 109.029 94.6444 108.629 93.9481C108.244 93.237 108.051 92.4148 108.051 91.4815V88.1481C108.051 87.2 108.244 86.3778 108.629 85.6815C109.029 84.9852 109.585 84.4444 110.296 84.0593C111.022 83.6741 111.866 83.4815 112.829 83.4815C113.792 83.4815 114.629 83.6741 115.34 84.0593C116.066 84.4444 116.622 84.9852 117.007 85.6815C117.407 86.3778 117.607 87.2 117.607 88.1481V90.3037H110.007V91.4815C110.007 92.4444 110.251 93.1852 110.74 93.7037C111.229 94.2074 111.925 94.4593 112.829 94.4593C113.599 94.4593 114.222 94.3259 114.696 94.0593C115.17 93.7778 115.459 93.363 115.562 92.8148H117.562C117.429 93.837 116.925 94.6519 116.051 95.2593C115.192 95.8519 114.118 96.1481 112.829 96.1481ZM115.651 88.9704V88.1481C115.651 87.1852 115.407 86.4444 114.918 85.9259C114.444 85.4074 113.748 85.1481 112.829 85.1481C111.925 85.1481 111.229 85.4074 110.74 85.9259C110.251 86.4444 110.007 87.1852 110.007 88.1481V88.7926H115.807L115.651 88.9704ZM125.087 96.1481C123.798 96.1481 122.783 95.8222 122.043 95.1704C121.302 94.5037 120.931 93.6074 120.931 92.4815C120.931 91.3407 121.302 90.4444 122.043 89.7926C122.783 89.1407 123.783 88.8148 125.043 88.8148H128.82V87.5926C128.82 86.837 128.591 86.2593 128.131 85.8593C127.687 85.4444 127.05 85.237 126.22 85.237C125.494 85.237 124.887 85.3926 124.398 85.7037C123.909 86 123.628 86.4074 123.554 86.9259H121.554C121.687 85.8741 122.183 85.037 123.043 84.4148C123.902 83.7926 124.976 83.4815 126.265 83.4815C127.672 83.4815 128.783 83.8444 129.598 84.5704C130.413 85.2963 130.82 86.2815 130.82 87.5259V95.9259H128.865V93.5926H128.531L128.865 93.2593C128.865 94.1481 128.517 94.8519 127.82 95.3704C127.139 95.8889 126.228 96.1481 125.087 96.1481ZM125.576 94.5704C126.524 94.5704 127.302 94.3333 127.909 93.8593C128.517 93.3852 128.82 92.7778 128.82 92.037V90.3037H125.087C124.42 90.3037 123.894 90.4889 123.509 90.8593C123.124 91.2296 122.931 91.7333 122.931 92.3704C122.931 93.0519 123.161 93.5926 123.62 93.9926C124.094 94.3778 124.746 94.5704 125.576 94.5704ZM134.856 95.9259V83.7037H136.856V86.037H137.278L136.856 86.5037C136.856 85.5407 137.145 84.8 137.723 84.2815C138.301 83.7481 139.101 83.4815 140.123 83.4815C141.352 83.4815 142.33 83.8593 143.056 84.6148C143.782 85.3704 144.145 86.4 144.145 87.7037V95.9259H142.145V87.9259C142.145 87.0519 141.908 86.3852 141.434 85.9259C140.975 85.4519 140.345 85.2148 139.545 85.2148C138.715 85.2148 138.056 85.4667 137.567 85.9704C137.093 86.4741 136.856 87.2 136.856 88.1481V95.9259H134.856Z" fill="white"/>
</svg>
