<svg width="200" height="100" viewBox="0 0 200 100" fill="none" xmlns="http://www.w3.org/2000/svg">
<path d="M92 59.5L92 44L98 41L104 38M92 59.5H80M92 59.5H104M104 38V32L108.5 30.5M104 38L110 38.0759L111.5 33.5" stroke="white" stroke-width="3"/>
<path d="M92 56H89H95" stroke="white" stroke-width="3"/>
<path d="M88 56.5L84 56.5M84 56.5L100 56.5M84 56.5L80 56.5L104 56.5" stroke="white" stroke-width="3"/>
<path d="M86 53.5L98 53.5" stroke="white" stroke-width="3"/>
<rect x="110" y="26" width="3" height="3" fill="white"/>
<rect x="116" y="29" width="3" height="3" fill="white"/>
<rect x="116" y="23" width="3" height="3" fill="white"/>
<path d="M78.8164 75C78.4324 75 78.0964 74.924 77.8084 74.772C77.5204 74.62 77.2964 74.404 77.1364 74.124C76.9764 73.844 76.8964 73.516 76.8964 73.14V67.224H74.6764V66.24H77.9764V73.14C77.9764 73.412 78.0524 73.628 78.2044 73.788C78.3564 73.94 78.5604 74.016 78.8164 74.016H80.9164V75H78.8164ZM85.1117 75.096C84.5837 75.096 84.1277 74.996 83.7437 74.796C83.3597 74.596 83.0597 74.308 82.8437 73.932C82.6357 73.548 82.5317 73.096 82.5317 72.576V70.824C82.5317 70.296 82.6357 69.844 82.8437 69.468C83.0597 69.092 83.3597 68.804 83.7437 68.604C84.1277 68.404 84.5837 68.304 85.1117 68.304C85.6397 68.304 86.0957 68.404 86.4797 68.604C86.8637 68.804 87.1597 69.092 87.3677 69.468C87.5837 69.844 87.6917 70.292 87.6917 70.812V72.576C87.6917 73.096 87.5837 73.548 87.3677 73.932C87.1597 74.308 86.8637 74.596 86.4797 74.796C86.0957 74.996 85.6397 75.096 85.1117 75.096ZM85.1117 74.136C85.5837 74.136 85.9517 74.004 86.2157 73.74C86.4797 73.476 86.6117 73.088 86.6117 72.576V70.824C86.6117 70.312 86.4797 69.924 86.2157 69.66C85.9517 69.396 85.5837 69.264 85.1117 69.264C84.6477 69.264 84.2797 69.396 84.0077 69.66C83.7437 69.924 83.6117 70.312 83.6117 70.824V72.576C83.6117 73.088 83.7437 73.476 84.0077 73.74C84.2797 74.004 84.6477 74.136 85.1117 74.136ZM92.355 75.12C91.827 75.12 91.363 75.02 90.963 74.82C90.571 74.62 90.267 74.332 90.051 73.956C89.835 73.572 89.727 73.12 89.727 72.6V70.8C89.727 70.272 89.835 69.82 90.051 69.444C90.267 69.068 90.571 68.78 90.963 68.58C91.363 68.38 91.827 68.28 92.355 68.28C93.115 68.28 93.727 68.484 94.191 68.892C94.655 69.3 94.899 69.856 94.923 70.56H93.843C93.819 70.136 93.675 69.812 93.411 69.588C93.155 69.356 92.803 69.24 92.355 69.24C91.883 69.24 91.507 69.376 91.227 69.648C90.947 69.912 90.807 70.292 90.807 70.788V72.6C90.807 73.096 90.947 73.48 91.227 73.752C91.507 74.024 91.883 74.16 92.355 74.16C92.803 74.16 93.155 74.044 93.411 73.812C93.675 73.58 93.819 73.256 93.843 72.84H94.923C94.899 73.544 94.655 74.1 94.191 74.508C93.727 74.916 93.115 75.12 92.355 75.12ZM100.402 75C100.018 75 99.6823 74.924 99.3943 74.772C99.1063 74.62 98.8823 74.404 98.7223 74.124C98.5623 73.844 98.4823 73.516 98.4823 73.14V67.224H96.2623V66.24H99.5623V73.14C99.5623 73.412 99.6383 73.628 99.7903 73.788C99.9423 73.94 100.146 74.016 100.402 74.016H102.502V75H100.402ZM106.698 75.12C106.178 75.12 105.722 75.016 105.33 74.808C104.946 74.6 104.646 74.308 104.43 73.932C104.222 73.548 104.118 73.104 104.118 72.6V70.8C104.118 70.288 104.222 69.844 104.43 69.468C104.646 69.092 104.946 68.8 105.33 68.592C105.722 68.384 106.178 68.28 106.698 68.28C107.218 68.28 107.67 68.384 108.054 68.592C108.446 68.8 108.746 69.092 108.954 69.468C109.17 69.844 109.278 70.288 109.278 70.8V71.964H105.174V72.6C105.174 73.12 105.306 73.52 105.57 73.8C105.834 74.072 106.21 74.208 106.698 74.208C107.114 74.208 107.45 74.136 107.706 73.992C107.962 73.84 108.118 73.616 108.174 73.32H109.254C109.182 73.872 108.91 74.312 108.438 74.64C107.974 74.96 107.394 75.12 106.698 75.12ZM108.222 71.244V70.8C108.222 70.28 108.09 69.88 107.826 69.6C107.57 69.32 107.194 69.18 106.698 69.18C106.21 69.18 105.834 69.32 105.57 69.6C105.306 69.88 105.174 70.28 105.174 70.8V71.148H108.306L108.222 71.244ZM113.317 75.12C112.621 75.12 112.073 74.944 111.673 74.592C111.273 74.232 111.073 73.748 111.073 73.14C111.073 72.524 111.273 72.04 111.673 71.688C112.073 71.336 112.613 71.16 113.293 71.16H115.333V70.5C115.333 70.092 115.209 69.78 114.961 69.564C114.721 69.34 114.377 69.228 113.929 69.228C113.537 69.228 113.209 69.312 112.945 69.48C112.681 69.64 112.529 69.86 112.489 70.14H111.409C111.481 69.572 111.749 69.12 112.213 68.784C112.677 68.448 113.257 68.28 113.953 68.28C114.713 68.28 115.313 68.476 115.753 68.868C116.193 69.26 116.413 69.792 116.413 70.464V75H115.357V73.74H115.177L115.357 73.56C115.357 74.04 115.169 74.42 114.793 74.7C114.425 74.98 113.933 75.12 113.317 75.12ZM113.581 74.268C114.093 74.268 114.513 74.14 114.841 73.884C115.169 73.628 115.333 73.3 115.333 72.9V71.964H113.317C112.957 71.964 112.673 72.064 112.465 72.264C112.257 72.464 112.153 72.736 112.153 73.08C112.153 73.448 112.277 73.74 112.525 73.956C112.781 74.164 113.133 74.268 113.581 74.268ZM118.592 75V68.4H119.672V69.66H119.9L119.672 69.912C119.672 69.392 119.828 68.992 120.14 68.712C120.452 68.424 120.884 68.28 121.436 68.28C122.1 68.28 122.628 68.484 123.02 68.892C123.412 69.3 123.608 69.856 123.608 70.56V75H122.528V70.68C122.528 70.208 122.4 69.848 122.144 69.6C121.896 69.344 121.556 69.216 121.124 69.216C120.676 69.216 120.32 69.352 120.056 69.624C119.8 69.896 119.672 70.288 119.672 70.8V75H118.592Z" fill="white"/>
</svg>
